<?xml version="1.0" standalone="no"?><!DOCTYPE svg PUBLIC "-//W3C//DTD SVG 1.1//EN" "http://www.w3.org/Graphics/SVG/1.1/DTD/svg11.dtd"><svg t="1639389938689" class="icon" viewBox="0 0 1024 1024" version="1.1" xmlns="http://www.w3.org/2000/svg" p-id="10189" xmlns:xlink="http://www.w3.org/1999/xlink" width="200" height="200"><defs><style type="text/css"></style></defs><path d="M550.4 326.4c6.4-6.4 12.8-19.2 12.8-38.4 0-32-19.2-44.8-64-44.8h-32v96h38.4c19.2 0 32-6.4 44.8-12.8zM512 403.2h-44.8V512H512c19.2 0 38.4-6.4 51.2-12.8s19.2-25.6 19.2-38.4c0-19.2-6.4-32-19.2-38.4s-25.6-19.2-51.2-19.2z" fill="#1296db" p-id="10190"></path><path d="M512 44.8c-192 0-345.6 153.6-345.6 345.6 0 76.8 25.6 140.8 64 198.4L512 979.2l281.6-390.4c38.4-57.6 64-128 64-198.4 0-192-153.6-345.6-345.6-345.6z m115.2 492.8c-25.6 19.2-57.6 32-102.4 32H384v-384h134.4c44.8 0 76.8 6.4 96 25.6s32 38.4 32 64c0 19.2-6.4 38.4-19.2 57.6s-32 25.6-51.2 25.6c25.6 6.4 51.2 12.8 64 32s25.6 38.4 25.6 64c0 38.4-12.8 64-38.4 83.2z" fill="#1296db" p-id="10191"></path></svg>